<svg xmlns="http://www.w3.org/2000/svg" xml:space="preserve" fill-rule="evenodd" clip-rule="evenodd" image-rendering="optimizeQuality" shape-rendering="geometricPrecision" text-rendering="geometricPrecision" viewBox="0 0 3006.46 2591.98">
  <path fill="#0da3f0" d="M2000.82 425.23c-53.32-7.94-257.63-104.81-452.88-90.57l1.12 1219.36c31.56 4.21 72.96-5.68 96.31 12.76 50.8 40.11 15.76 107.48-26.52 144.65-20.83 18.32-49.43 24.82-71.43 41.54-1.58 54.04 1.48 64.56 32.39 95.11 51.37 50.77 128.63 56.73 189.04 18.57 28.41-17.94 42.88-37.42 59.3-73.46 8.76-19.23 12.08-28.69 28.33-35.41 38.62-15.97 95.59 13.11 51.5 95.74-52.01 97.5-85.63 90.08-137.24 122.91-.93 106.93 1.48 159.29-46.4 247.89-37.15 68.74-83.11 95.31-175.85 121.65l.2 243.55c304.13 13.85 597.72-92.16 819.28-256.19 88.67-65.65 148.74-125.97 215.2-216.87 26.94-36.85 65.44-91.43 83.29-133.72 35.37 10.39 77.28 33.87 107.93 49.71 28.33 14.64 92.08 55.23 108.94 16.13 21.13-49.02-35.72-64.31-68.89-81.12-34.8-17.63-73.24-38.66-109.33-52.47 7.8-27.08 21.93-57.56 31.41-86.66 9.68-29.69 14.76-67.75 27.62-92.65 42.48-1.87 89.35-.06 132.48-.15 42.72-.09 100.32 11.79 108.36-27.72 11.26-55.32-46.6-46.17-88.73-46.29-45.9-.13-92.57-.8-138.39.2 30.63-227.15-.22-442.06-80.17-641.99-28.38-70.97-42.62-57.05-27.21-140.45 9.85-53.3 17.41-108.03 23.85-162.47 15.11-127.84 31.67-587.18-35.93-678.39-62.32-84.09-175.78-9.2-254.8 43.94-20.65 13.88-34.58 23.85-54 39.11L2144.54 289.4c-13.4 10.02-10.06 8.48-22.66 21.4-22.14 22.67-79.26 62.83-109.88 101.11-5.11 6.39-5.93 6-11.21 13.35zm138.8 783.29c-25.62-33.41-64.89-67.05-95.63-99.38-26.17-27.52-74.56-88.2-129.57-34.27-55.7 54.6 9.64 106.17 33.13 130.65 17.23 17.96 30.59 32.34 48.14 50 17.04 17.14 40.45 34.33 50.23 58.93-19.4 12.12-84.96 77.41-102.04 94.17-23.56 23.12-84.58 82.87-28.27 133.07 55.85 49.78 103.7-12.5 126.38-35 22.73-22.55 85.31-80.38 98.35-102.78l75.5 73.05c10.34 10.66 18.67 13.36 29.95 24.02 24.07 22.74 68.79 93.47 128.89 43.95 42.33-34.88 18.78-92.47-28.82-134.19-10.63-9.31-16.5-11.04-27.44-21.63-10.57-10.22-16.24-17.09-26.41-27.51-17.65-18.11-39.68-33.05-48.43-57.41 9.07-8.21 14.13-14.97 23.48-23.89 6.73-6.42 17.35-13.62 26.96-21.98 17.74-15.43 33.34-34.93 50.96-52.2 30.51-29.91 82.89-74.01 29.49-132.99-51.54-56.93-107.74 12.1-128.98 33.53-18.26 18.41-32.84 33.54-51.49 51.59-17.1 16.56-33.77 40.38-54.37 50.26z"/>
  <path fill="#7116bd" d="M227.49 1662.68c-50.64-.66-101.47.01-152.16-.27-39.36-.22-97.36-9.1-66.71 68.35 60.15 14.54 168.35 7.53 235.73 6.04 10.4 22.31 16.29 64.78 25.47 91.21 8.56 24.67 27.85 67.23 32.22 87.79-30.47 6.41-77.72 36.17-105.75 50.78-31.24 16.29-102.29 36.61-74.01 82.45 3.34 5.41 16.42 13.98 23.84 15.42 27.24 5.29 161.04-70.06 191.23-82.64 22.09 26.28 57.31 101.75 101.57 153.28l16.8 22.56c14.5 21.67 50.73 54.01 66.7 70.69l82.2 79.82c233.63 198.65 553.14 274.76 857.37 283.82l-1.36-249.85c-64.62 1.66-148.54-64.39-176.24-114.94-47.41-86.52-47.13-145.01-47.67-248.52-14.83-11.85-25.78-13.89-44.04-23.46-17.31-9.07-23.04-16.73-37.03-26.58-20.03-14.11-17.6-12.8-30.65-33.04-16.14-25.06-71.17-96.7-26.13-134.82 12.17-10.3 28.99-11.93 45.04-6.78 47.08 15.1 38.74 149.09 192.15 135.85 17.15-1.48 35.89-5.44 50.81-12.58 55.42-26.53 73.2-68.39 74.18-124.3-18.12-14.17-93.28-36.61-114.62-102.67-29.09-90.07 43.94-100.6 112.05-94.82l1.84-1224.57c-148.46 13.17-207.42 22.51-345.49 61.8-31.34 8.92-75.9 29.03-103.39 34.78-15.73-18.67-33.59-29.46-46.63-44.99-38.9-46.34-16.77-16.41-48.02-45.26-10.81-9.99-10.46-13.79-20.95-22.83-10.17-8.76-19.41-11.65-28.56-21.04-13.67-14.02-2.04-9.18-21.29-22.41l-51.63-41.86C734.73 172.31 559.41 46.36 485.78 17.53 425.74-5.98 379.3-10.86 348.94 34.62c-73.45 110.02-49.7 544.8-35.76 681.17 5.48 53.64 13.78 107.26 23.77 161.97 5.29 28.96 16.8 46.13 5.42 72.47-86.89 201.02-141.82 405.33-120.03 626.11 2.21 22.37 10.37 70.78 5.13 86.33zm648.33-594.26c-54.08 3.13-87.65 27.72-126.93 53.14-17.7 11.46-43.21 49.84-52.44 70.04-5.98 13.08-13.84 26.65-18.77 40.04-28.75 78.1-14.26 168.73 30.89 241.49 17.67 28.48 63.52 67.9 98.74 82.68 101.72 42.7 214.36-.9 259.85-72.12 16.93-26.52 29.11-41.02 41.08-76.5 11.46-33.95 11.61-71.85 10.62-109.72-1.63-62.26-30.85-120.91-75.54-164.06l-29.5-29.3c-36.39-26.87-94.26-38.2-138-35.67z"/>
  <path fill="#fa429d" d="M1324.34 1991.22c-19.99 143.04 43.8 266.22 178.81 268.01 144.98 1.93 190.36-126.69 181.04-269.63-80.59-1.89-112.22-34.63-140.25-40.1 3.29 44.71 15.62 152.26-21.11 166.91-70.93 28.3-51.76-94.75-51.05-171.9-58.8 25.41-68.93 34.67-147.43 46.7z"/>
</svg>

